<svg width="47" height="41" viewBox="0 0 47 41" fill="none" xmlns="http://www.w3.org/2000/svg">
<path d="M1.32875 32.4344C4.83101 33.6834 7.94687 35.4792 11.2592 37.1619C12.1211 37.5866 12.6798 36.3757 12.0649 35.7982C10.9933 34.8454 9.82075 33.9716 8.58669 33.2274C12.3271 33.2721 16.2507 32.5625 19.6397 31.7421C24.2088 30.6086 28.6461 28.6826 32.6091 26.1506C39.1541 21.9232 46.2267 13.7403 46.0997 5.41091C46.1095 4.9553 45.3838 4.91255 45.2444 5.30669C43.5914 9.12517 42.371 12.7679 39.7321 16.0552C37.1437 19.3028 33.8734 22.1477 30.2859 24.223C26.5018 26.4113 22.3268 27.6842 17.9871 28.4344C14.395 29.0474 10.8402 28.9796 7.2579 29.137C9.19873 27.4549 10.8179 25.4138 11.7278 23.195C12.2524 21.8885 10.5001 20.8984 9.63734 21.981C8.34314 23.6048 7.26303 25.3461 5.76021 26.8075C4.31338 28.1843 2.7249 29.2241 1.0914 30.2585C0.249404 30.7954 0.495454 32.1501 1.32875 32.4344Z" fill="#A5989D"/>
</svg>
