<svg width="37" height="37" viewBox="0 0 37 37" fill="none" xmlns="http://www.w3.org/2000/svg">
<g clip-path="url(#clip0)">
<path d="M19.661 37H17.3389C15.4608 37 13.9327 35.472 13.9327 33.5939V32.8083C13.1343 32.5532 12.3585 32.2312 11.6132 31.8455L11.0565 32.4022C9.70809 33.7523 7.54814 33.7127 6.23891 32.4017L4.59768 30.7606C3.28613 29.4505 3.24841 27.2913 4.59812 25.943L5.15442 25.3867C4.76874 24.6414 4.44679 23.8658 4.19162 23.0672H3.4061C1.52806 23.0672 0 21.5392 0 19.6611V17.3389C0 15.4608 1.52806 13.9328 3.40617 13.9328H4.1917C4.44687 13.1343 4.76881 12.3586 5.15449 11.6133L4.59776 11.0566C3.24885 9.70918 3.28606 7.54973 4.59819 6.23905L6.23956 4.59776C7.55183 3.28368 9.71127 3.25087 11.0571 4.59819L11.6133 5.15442C12.3586 4.76881 13.1343 4.44679 13.9328 4.19162V3.4061C13.9328 1.52798 15.4608 0 17.339 0H19.6611C21.5392 0 23.0672 1.52798 23.0672 3.4061V4.1917C23.8657 4.44679 24.6414 4.76881 25.3867 5.15449L25.9434 4.59776C27.2918 3.24769 29.4518 3.28729 30.761 4.59826L32.4022 6.23941C33.7138 7.54952 33.7515 9.70874 32.4018 11.057L31.8455 11.6133C32.2312 12.3586 32.5531 13.1342 32.8083 13.9328H33.5938C35.4719 13.9328 37 15.4608 37 17.3389V19.6611C37 21.5392 35.4719 23.0672 33.5938 23.0672H32.8083C32.5531 23.8657 32.2312 24.6414 31.8455 25.3867L32.4022 25.9434C33.7512 27.2909 33.7139 29.4503 32.4018 30.761L30.7604 32.4023C29.4482 33.7164 27.2887 33.7492 25.9429 32.4019L25.3867 31.8457C24.6414 32.2313 23.8657 32.5533 23.0672 32.8084V33.594C23.0672 35.472 21.5392 37 19.661 37ZM11.9756 29.5689C13.011 30.1812 14.1253 30.6438 15.2876 30.9438C15.7663 31.0673 16.1008 31.499 16.1008 31.9934V33.5939C16.1008 34.2766 16.6563 34.832 17.339 34.832H19.6611C20.3438 34.832 20.8993 34.2766 20.8993 33.5939V31.9934C20.8993 31.499 21.2337 31.0673 21.7124 30.9438C22.8747 30.6438 23.9891 30.1812 25.0244 29.5689C25.4504 29.317 25.9928 29.3855 26.3428 29.7355L27.4765 30.8693C27.9653 31.3587 28.7502 31.3473 29.227 30.8698L30.8694 29.2275C31.3451 28.7524 31.361 27.9673 30.8699 27.4768L29.7356 26.3426C29.3857 25.9927 29.3172 25.4503 29.5691 25.0244C30.1814 23.9891 30.6439 22.8747 30.9439 21.7124C31.0674 21.2337 31.4991 20.8993 31.9934 20.8993H33.5939C34.2766 20.8993 34.8321 20.3439 34.8321 19.6612V17.339C34.8321 16.6563 34.2766 16.1009 33.5939 16.1009H31.9934C31.4991 16.1009 31.0674 15.7664 30.9439 15.2878C30.6439 14.1254 30.1813 13.0111 29.5691 11.9758C29.3172 11.5499 29.3857 11.0074 29.7356 10.6575L30.8694 9.52374C31.3595 9.03421 31.3467 8.24941 30.8699 7.77311L29.2276 6.13087C28.7516 5.65421 27.9665 5.64026 27.477 6.13044L26.3428 7.26465C25.9929 7.61463 25.4504 7.68314 25.0245 7.43122C23.9892 6.81891 22.8748 6.35634 21.7125 6.05637C21.2338 5.93286 20.8994 5.50115 20.8994 5.00678V3.4061C20.8994 2.7234 20.3439 2.16797 19.6612 2.16797H17.3391C16.6564 2.16797 16.1009 2.7234 16.1009 3.4061V5.00663C16.1009 5.501 15.7664 5.93272 15.2877 6.05622C14.1254 6.3562 13.0111 6.81877 11.9757 7.43107C11.5496 7.68292 11.0073 7.61441 10.6574 7.2645L9.52367 6.13073C9.03487 5.64134 8.24984 5.65269 7.77311 6.13022L6.13073 7.77253C5.65507 8.2476 5.63918 9.03263 6.13029 9.52316L7.2645 10.6574C7.61441 11.0073 7.68292 11.5497 7.43107 11.9756C6.81877 13.0109 6.35627 14.1253 6.05629 15.2876C5.93272 15.7663 5.501 16.1007 5.00671 16.1007H3.40617C2.72347 16.1008 2.16797 16.6562 2.16797 17.3389V19.6611C2.16797 20.3438 2.72347 20.8992 3.40617 20.8992H5.00663C5.501 20.8992 5.93265 21.2337 6.05622 21.7123C6.3562 22.8747 6.81877 23.989 7.431 25.0243C7.68285 25.4502 7.61434 25.9926 7.26443 26.3426L6.13065 27.4763C5.64055 27.9659 5.65334 28.7507 6.13022 29.227L7.77246 30.8692C8.24847 31.3459 9.03356 31.3598 9.52309 30.8696L10.6572 29.7354C10.9151 29.4777 11.4515 29.2589 11.9756 29.5689Z" fill="#A55EEA"/>
<path d="M18.5 26.5504C14.0609 26.5504 10.4496 22.939 10.4496 18.5C10.4496 14.061 14.0609 10.4496 18.5 10.4496C22.9391 10.4496 26.5504 14.061 26.5504 18.5C26.5504 22.939 22.9391 26.5504 18.5 26.5504ZM18.5 12.6176C15.2564 12.6176 12.6176 15.2564 12.6176 18.5C12.6176 21.7436 15.2564 24.3824 18.5 24.3824C21.7436 24.3824 24.3824 21.7436 24.3824 18.5C24.3824 15.2564 21.7436 12.6176 18.5 12.6176Z" fill="#A55EEA"/>
</g>
<defs>
<clipPath id="clip0">
<rect width="37" height="37" fill="white"/>
</clipPath>
</defs>
</svg>
