<svg width="11" height="11" viewBox="0 0 11 11" fill="none" xmlns="http://www.w3.org/2000/svg">
<path d="M3.36272 1.34692L3.54509 2.16325C2.10639 2.7959 1.09322 4.22448 1.09322 5.91835C1.09322 8.16325 2.91693 9.99999 5.1459 9.99999C7.37488 9.99999 9.19859 8.16325 9.19859 5.91835C9.19859 4.22448 8.18542 2.7755 6.72645 2.16325L6.90882 1.34692C8.71227 2.06121 10.0091 3.83672 10.0091 5.91835C10.0091 8.61223 7.82068 10.8163 5.1459 10.8163C2.47113 10.8163 0.282681 8.61223 0.282681 5.91835C0.282681 3.83672 1.55928 2.06121 3.36272 1.34692Z" fill="white"/>
<path d="M4.74064 0.142853H5.55118V4.22449H4.74064V0.142853Z" fill="white"/>
</svg>
