<svg width="300" height="168" viewBox="0 0 300 168" fill="none" xmlns="http://www.w3.org/2000/svg">
    <g clip-path="url(#clip0)">
        <path d="M201.546 14.673V115.966C201.546 119.203 198.911 121.885 195.655 121.885H94.8872C91.6626 121.885 88.9961 119.234 88.9961 115.966V14.673C88.9961 11.4364 91.6316 8.75452 94.8872 8.75452H195.655C198.911 8.75452 201.546 11.4364 201.546 14.673Z" fill="#D9D0D0"/>
        <path d="M179.036 65.3196C179.036 66.9534 178.912 68.5872 178.695 70.1593C177.858 76.1395 175.44 81.6264 171.905 86.1578C166.665 92.9395 158.914 97.625 150.046 98.8888C148.496 99.1046 146.883 99.2279 145.271 99.2279C143.628 99.2279 142.046 99.1046 140.465 98.8888C131.66 97.625 123.939 92.9395 118.699 86.2195C115.134 81.6573 112.715 76.1703 111.878 70.1593C111.661 68.5872 111.537 66.9534 111.537 65.3196C111.537 63.6859 111.661 62.0521 111.878 60.48C112.715 54.469 115.134 48.982 118.699 44.4198C123.939 37.6998 131.66 33.0143 140.496 31.7505C142.046 31.5347 143.659 31.4114 145.271 31.4114C146.883 31.4114 148.496 31.5347 150.077 31.7505C158.914 33.0143 166.665 37.7306 171.905 44.4815C175.44 49.0437 177.827 54.4998 178.695 60.48C178.912 62.0521 179.036 63.6859 179.036 65.3196Z" fill="#BBBABD"/>
        <path d="M179.036 65.3196C179.036 66.9534 178.912 68.5872 178.695 70.1593C177.858 76.1395 175.44 81.6264 171.905 86.1578C166.665 92.9395 158.914 97.625 150.046 98.8888C148.496 99.1046 146.883 99.2279 145.271 99.2279C143.628 99.2279 142.046 99.1046 140.465 98.8888C131.66 97.625 123.939 92.9395 118.699 86.2195C115.134 81.6573 112.715 76.1703 111.878 70.1593C111.661 68.5872 111.537 66.9534 111.537 65.3196C111.537 63.6859 111.661 62.0521 111.878 60.48C112.715 54.469 115.134 48.982 118.699 44.4198C123.939 37.6998 131.66 33.0143 140.496 31.7505C142.046 31.5347 143.659 31.4114 145.271 31.4114C146.883 31.4114 148.496 31.5347 150.077 31.7505C158.914 33.0143 166.665 37.7306 171.905 44.4815C175.44 49.0437 177.827 54.4998 178.695 60.48C178.912 62.0521 179.036 63.6859 179.036 65.3196Z" fill="#B4B4B6"/>
        <path d="M130.76 70.1593C133.415 70.1593 135.566 67.9925 135.566 65.3196C135.566 62.6468 133.415 60.48 130.76 60.48C128.106 60.48 125.954 62.6468 125.954 65.3196C125.954 67.9925 128.106 70.1593 130.76 70.1593Z" fill="#222424"/>
        <path d="M159.906 70.1593C162.56 70.1593 164.712 67.9925 164.712 65.3196C164.712 62.6468 162.56 60.48 159.906 60.48C157.252 60.48 155.1 62.6468 155.1 65.3196C155.1 67.9925 157.252 70.1593 159.906 70.1593Z" fill="#222424"/>
        <path d="M145.302 60.48C142.853 60.48 140.806 62.3295 140.527 64.7339H150.077C149.767 62.3295 147.752 60.48 145.302 60.48Z" fill="#E0E0E1"/>
        <path d="M145.302 70.1592C147.752 70.1592 149.798 68.3097 150.077 65.9053H140.527C140.806 68.3097 142.822 70.1592 145.302 70.1592Z" fill="#E0E0E1"/>
        <path d="M150.077 64.734H140.527C140.496 64.919 140.496 65.1347 140.496 65.3197C140.496 65.5047 140.496 65.7204 140.527 65.9054H150.077C150.108 65.7204 150.108 65.5047 150.108 65.3197C150.108 65.1347 150.077 64.919 150.077 64.734Z" fill="#9B9C9E"/>
        <path d="M118.761 44.4197V60.4799H111.909C112.746 54.4997 115.165 48.9819 118.761 44.4197Z" fill="#E7E7E7"/>
        <path d="M118.761 70.1593V86.2195H118.73C115.165 81.6573 112.746 76.1703 111.909 70.1593H118.761Z" fill="#E7E7E7"/>
        <path d="M178.695 60.48H171.905V44.4814C175.439 49.0436 177.827 54.4998 178.695 60.48Z" fill="#E7E7E7"/>
        <path d="M178.695 70.1593C177.858 76.1395 175.439 81.6264 171.905 86.1578V70.1593H178.695Z" fill="#E7E7E7"/>
        <path d="M150.077 87.1443V98.9197C148.527 99.1355 146.914 99.2588 145.302 99.2588C143.659 99.2588 142.078 99.1355 140.496 98.9197V87.1443H150.077Z" fill="#A4A4A5"/>
        <path d="M150.077 31.7505V43.2793H140.496V31.7505C142.047 31.5347 143.659 31.4114 145.302 31.4114C146.945 31.4114 148.527 31.5347 150.077 31.7505Z" fill="#A4A4A5"/>
        <path d="M148.651 88.6855H141.799V100.492H148.651V88.6855Z" fill="#9A9A9C"/>
        <path d="M148.651 30.3325H141.799V42.1388H148.651V30.3325Z" fill="#9A9A9C"/>
        <path d="M145.302 27.7432C124.652 27.7432 107.909 44.574 107.909 65.3197C107.909 86.0654 124.652 102.896 145.302 102.896C165.952 102.896 182.695 86.0654 182.695 65.3197C182.664 44.574 165.952 27.7432 145.302 27.7432ZM171.905 86.1579C166.665 92.9395 158.914 97.625 150.046 98.8889C148.496 99.1046 146.883 99.228 145.271 99.228C143.628 99.228 142.047 99.1046 140.465 98.8889C131.66 97.625 123.939 92.9395 118.699 86.2195C115.134 81.6573 112.715 76.1703 111.878 70.1593C111.661 68.5872 111.537 66.9534 111.537 65.3197C111.537 63.6859 111.661 62.0522 111.878 60.4801C112.715 54.469 115.134 48.9821 118.699 44.4199C123.939 37.6999 131.66 33.0144 140.496 31.7505C142.047 31.5347 143.659 31.4114 145.271 31.4114C146.883 31.4114 148.496 31.5347 150.077 31.7505C158.914 33.0144 166.665 37.7307 171.905 44.4815C175.44 49.0437 177.827 54.4999 178.695 60.4801C178.912 62.0522 179.036 63.6551 179.036 65.3197C179.036 66.9534 178.912 68.5872 178.695 70.1593C177.827 76.1395 175.44 81.6265 171.905 86.1579Z" fill="url(#paint0_linear)"/>
        <path d="M153.984 63.3775H145.178H136.373L117.645 47.0091C114.142 52.3111 112.095 58.692 112.095 65.5353C112.095 84.1232 127.071 99.197 145.55 99.197C164.03 99.197 179.005 84.1232 179.005 65.5353C179.005 58.5071 176.866 51.972 173.176 46.5775L153.984 63.3775Z" fill="#202322"/>
        <path d="M145.178 63.3776H153.984L173.207 46.5776C167.192 37.7306 157.054 31.9045 145.581 31.9045C133.923 31.9045 123.629 37.9156 117.645 47.0091L136.373 63.3776H145.178Z" fill="#202322"/>
        <path d="M145.178 63.3776H153.984L173.207 46.5776C167.192 37.7306 157.054 31.9045 145.581 31.9045C133.923 31.9045 123.629 37.9156 117.645 47.0091L136.373 63.3776H145.178Z" fill="#3A3C3D"/>
        <path d="M154.356 114.949H136.745C134.698 114.949 133.024 113.284 133.024 111.25V59.9867C133.024 57.9522 134.698 56.2876 136.745 56.2876H154.356C156.402 56.2876 158.077 57.9522 158.077 59.9867V111.219C158.077 113.284 156.402 114.949 154.356 114.949Z" fill="#2A2D2D"/>
        <path d="M149.488 122.008H141.613C140.218 122.008 139.101 120.867 139.101 119.511V101.694C139.101 100.307 140.249 99.197 141.613 99.197H149.488C150.883 99.197 152 100.338 152 101.694V119.511C152.031 120.898 150.883 122.008 149.488 122.008Z" fill="#2A2D2D"/>
        <path d="M142.76 121.299C142.76 139.363 131.474 149.905 111.816 150.183V150.275C94.8871 150.83 77.9581 149.628 67.2301 139.055C57.8045 129.776 53.5567 113.901 54.3008 90.5042L51.2003 90.4118H54.3008C54.3008 66.3677 47.2315 49.5369 33.8681 41.7688C22.148 34.9563 6.4282 35.6653 -12.0201 43.7417C-15.3997 41.3989 -19.4925 39.2411 -24.2363 37.2991C-38.902 31.3497 -58.3115 28.0514 -78.9302 28.0514V34.2165C-59.0866 34.2165 -40.5143 37.3299 -26.5927 43.0018C-23.6472 44.2041 -20.9807 45.4987 -18.6243 46.8551C-19.9886 47.5641 -21.3838 48.3039 -22.7791 49.0745L-22.717 49.167C-29.2592 53.3593 -32.9489 60.9116 -31.8017 68.2481C-30.7165 75.2147 -25.4455 80.116 -17.7252 81.3182L-17.5701 80.2393V81.349C-7.67934 81.349 -0.206993 72.9952 -0.206993 61.9288C-0.206993 57.0584 -2.4394 52.3729 -6.68716 48.1189C8.56759 42.0154 21.3419 41.5839 30.7056 47.04C42.0536 53.6367 48.0687 68.618 48.0687 90.3501C47.2936 115.504 52.1304 132.859 62.8274 143.401C73.7413 154.159 89.3371 156.533 105.429 156.533C108.313 156.533 111.227 156.44 114.142 156.348V156.286C125.211 155.731 133.892 152.248 139.969 145.929C145.86 139.825 148.961 131.317 148.961 121.299H142.76ZM-6.37711 61.9596C-6.37711 69.327 -10.9349 74.9064 -17.043 75.2147C-21.9419 74.3516 -25.0115 71.5773 -25.6936 67.3541C-26.4067 62.7919 -24.0193 56.596 -18.0352 53.6367L-18.0662 53.5751C-16.2989 52.6195 -14.5626 51.7255 -12.8263 50.8932C-8.64052 54.4074 -6.37711 58.1989 -6.37711 61.9596Z" fill="black"/>
      
    </g>
    <defs>
        <linearGradient id="paint0_linear" x1="107.907" y1="65.3261" x2="182.678" y2="65.3261" gradientUnits="userSpaceOnUse">
            <stop stop-color="#EFEFEF"/>
            <stop offset="0.4904" stop-color="#EDEDED"/>
            <stop offset="0.667" stop-color="#E6E6E6"/>
            <stop offset="0.793" stop-color="#DBDBDB"/>
            <stop offset="0.8947" stop-color="#CACACA"/>
            <stop offset="0.9809" stop-color="#B5B4B4"/>
            <stop offset="1" stop-color="#AFAEAE"/>
        </linearGradient>
        <clipPath id="clip0">
            <rect x="-78" width="444" height="168" fill="white"/>
        </clipPath>
    </defs>
</svg>
