<svg width="216" height="131" viewBox="0 0 216 131" fill="none" xmlns="http://www.w3.org/2000/svg">
<path d="M215.587 131H183.959L183.922 128.095C183.554 86.4998 149.425 52.6282 107.793 52.6282C66.1986 52.6282 32.0328 86.463 31.665 128.095L31.6282 131H0L0.0367736 128.021C0.220659 99.5189 11.4376 72.7085 31.5914 52.5547C51.9291 32.217 78.997 21 107.793 21C136.59 21 163.621 32.217 183.995 52.5547C204.149 72.7085 215.366 99.5189 215.55 128.021L215.587 131ZM189.733 125.116H209.592C208.673 99.2614 198.191 75.099 179.839 56.7105C160.605 37.4761 135.008 26.8843 107.793 26.8843C80.5784 26.8843 54.9816 37.4761 35.7472 56.7105C17.3955 75.0622 6.87729 99.2614 5.99465 125.116H25.8542C26.7369 104.484 35.2691 85.2126 50.0535 70.5386C65.5366 55.1658 86.0214 46.7439 107.793 46.7439C129.565 46.7439 150.05 55.2026 165.533 70.5386C180.318 85.2126 188.85 104.484 189.733 125.116Z" fill="url(#paint0_linear)"/>
<path d="M28.7596 128.058C29.1274 84.7713 64.47 49.6861 107.83 49.6861C151.19 49.6861 186.533 84.7713 186.901 128.058H212.645C212.461 100.328 201.575 74.2531 181.936 54.651C162.15 34.8649 135.817 23.9422 107.83 23.9422C79.8428 23.9422 53.5105 34.8282 33.7245 54.651C14.0856 74.2899 3.19957 100.328 3.01569 128.058H28.7596Z" fill="#D2D2D2"/>
<path d="M17.1381 76.0919C8.01736 91.7221 3.12602 109.522 3.01569 128.058H28.7596C28.8699 113.825 32.7683 100.512 39.4985 89.0006L17.1381 76.0919Z" fill="url(#paint1_linear)"/>
<path d="M55.4597 37.9174C47.5894 42.4778 40.3076 48.0679 33.6877 54.651C14.0488 74.2899 3.1628 100.328 2.97891 128.058H28.7228C28.9802 99.1143 44.8679 73.8118 68.3316 60.241L55.4597 37.9174Z" fill="url(#paint2_linear)"/>
<path d="M107.646 23.9422C79.7325 23.9789 53.4737 34.9017 33.6877 54.651C14.0488 74.2899 3.1628 100.328 2.97891 128.058H28.7228C29.0906 84.8449 64.3229 49.7964 107.609 49.6861V23.9422H107.646Z" fill="url(#paint3_linear)"/>
<path d="M106.937 25.5L107.803 27L108.669 25.5L113.202 17.6473L114.069 16.1473H112.336H103.269H101.537L102.403 17.6473L106.937 25.5Z" fill="#554663" stroke="url(#paint4_linear)" stroke-width="2"/>
<path d="M90.2253 3.81445H91.4899V4.52246C91.9424 3.97233 92.4812 3.69727 93.1062 3.69727C93.4382 3.69727 93.7263 3.76562 93.9704 3.90234C94.2146 4.03906 94.4147 4.24577 94.571 4.52246C94.7989 4.24577 95.0446 4.03906 95.3083 3.90234C95.572 3.76562 95.8536 3.69727 96.153 3.69727C96.5339 3.69727 96.8562 3.77539 97.1198 3.93164C97.3835 4.08464 97.5804 4.31087 97.7106 4.61035C97.805 4.83171 97.8522 5.18978 97.8522 5.68457V9H96.4802V6.03613C96.4802 5.52181 96.433 5.18978 96.3386 5.04004C96.2116 4.84473 96.0163 4.74707 95.7526 4.74707C95.5606 4.74707 95.3799 4.80566 95.2106 4.92285C95.0414 5.04004 94.9193 5.21257 94.8444 5.44043C94.7696 5.66504 94.7321 6.02148 94.7321 6.50977V9H93.3601V6.1582C93.3601 5.65365 93.3356 5.32812 93.2868 5.18164C93.238 5.03516 93.1615 4.92611 93.0573 4.85449C92.9564 4.78288 92.8181 4.74707 92.6423 4.74707C92.4307 4.74707 92.2403 4.80404 92.071 4.91797C91.9017 5.0319 91.7797 5.19629 91.7048 5.41113C91.6332 5.62598 91.5974 5.98242 91.5974 6.48047V9H90.2253V3.81445ZM102.227 7.34961L103.594 7.5791C103.419 8.0804 103.14 8.46289 102.759 8.72656C102.382 8.98698 101.908 9.11719 101.339 9.11719C100.437 9.11719 99.7696 8.82259 99.3366 8.2334C98.9948 7.76139 98.8239 7.16569 98.8239 6.44629C98.8239 5.58691 99.0485 4.91471 99.4978 4.42969C99.947 3.94141 100.515 3.69727 101.202 3.69727C101.973 3.69727 102.582 3.9528 103.028 4.46387C103.474 4.97168 103.687 5.7513 103.668 6.80273H100.23C100.24 7.20964 100.351 7.52702 100.562 7.75488C100.774 7.97949 101.037 8.0918 101.353 8.0918C101.568 8.0918 101.749 8.0332 101.895 7.91602C102.042 7.79883 102.152 7.61003 102.227 7.34961ZM102.305 5.96289C102.296 5.56576 102.193 5.26465 101.998 5.05957C101.802 4.85124 101.565 4.74707 101.285 4.74707C100.985 4.74707 100.738 4.85612 100.543 5.07422C100.347 5.29232 100.251 5.58854 100.255 5.96289H102.305ZM109.547 9H108.272V8.23828C108.061 8.53451 107.81 8.75586 107.52 8.90234C107.234 9.04557 106.944 9.11719 106.651 9.11719C106.055 9.11719 105.544 8.87793 105.118 8.39941C104.695 7.91764 104.483 7.24707 104.483 6.3877C104.483 5.50879 104.69 4.84147 105.103 4.38574C105.517 3.92676 106.039 3.69727 106.671 3.69727C107.25 3.69727 107.751 3.93815 108.175 4.41992V1.8418H109.547V9ZM105.884 6.29492C105.884 6.84831 105.961 7.2487 106.114 7.49609C106.335 7.85417 106.645 8.0332 107.042 8.0332C107.357 8.0332 107.626 7.89974 107.847 7.63281C108.069 7.36263 108.179 6.96061 108.179 6.42676C108.179 5.83105 108.072 5.40299 107.857 5.14258C107.642 4.87891 107.367 4.74707 107.032 4.74707C106.706 4.74707 106.433 4.87728 106.212 5.1377C105.994 5.39486 105.884 5.7806 105.884 6.29492ZM110.904 3.11133V1.8418H112.276V3.11133H110.904ZM110.904 9V3.81445H112.276V9H110.904ZM117.1 9V8.22363C116.911 8.50033 116.662 8.71842 116.353 8.87793C116.047 9.03743 115.723 9.11719 115.382 9.11719C115.033 9.11719 114.721 9.04069 114.444 8.8877C114.167 8.7347 113.967 8.51986 113.843 8.24316C113.72 7.96647 113.658 7.58398 113.658 7.0957V3.81445H115.03V6.19727C115.03 6.92643 115.054 7.37402 115.103 7.54004C115.155 7.7028 115.248 7.83301 115.382 7.93066C115.515 8.02507 115.684 8.07227 115.889 8.07227C116.124 8.07227 116.334 8.00879 116.519 7.88184C116.705 7.75163 116.832 7.59212 116.9 7.40332C116.968 7.21126 117.003 6.74414 117.003 6.00195V3.81445H118.375V9H117.1ZM119.698 3.81445H120.963V4.52246C121.415 3.97233 121.954 3.69727 122.579 3.69727C122.911 3.69727 123.199 3.76562 123.443 3.90234C123.687 4.03906 123.887 4.24577 124.044 4.52246C124.272 4.24577 124.517 4.03906 124.781 3.90234C125.045 3.76562 125.326 3.69727 125.626 3.69727C126.007 3.69727 126.329 3.77539 126.592 3.93164C126.856 4.08464 127.053 4.31087 127.183 4.61035C127.278 4.83171 127.325 5.18978 127.325 5.68457V9H125.953V6.03613C125.953 5.52181 125.906 5.18978 125.811 5.04004C125.684 4.84473 125.489 4.74707 125.225 4.74707C125.033 4.74707 124.853 4.80566 124.683 4.92285C124.514 5.04004 124.392 5.21257 124.317 5.44043C124.242 5.66504 124.205 6.02148 124.205 6.50977V9H122.833V6.1582C122.833 5.65365 122.808 5.32812 122.759 5.18164C122.711 5.03516 122.634 4.92611 122.53 4.85449C122.429 4.78288 122.291 4.74707 122.115 4.74707C121.903 4.74707 121.713 4.80404 121.544 4.91797C121.374 5.0319 121.252 5.19629 121.177 5.41113C121.106 5.62598 121.07 5.98242 121.07 6.48047V9H119.698V3.81445Z" fill="#191919"/>
<defs>
<linearGradient id="paint0_linear" x1="164.949" y1="127.221" x2="164.438" y2="21" gradientUnits="userSpaceOnUse">
<stop stop-color="#554663"/>
<stop offset="1" stop-color="white"/>
</linearGradient>
<linearGradient id="paint1_linear" x1="3.01068" y1="102.076" x2="39.4899" y2="102.076" gradientUnits="userSpaceOnUse">
<stop stop-color="#A55EEA"/>
<stop offset="1" stop-color="#554663"/>
</linearGradient>
<linearGradient id="paint2_linear" x1="3.01069" y1="82.9805" x2="68.3607" y2="82.9805" gradientUnits="userSpaceOnUse">
<stop stop-color="#A55EEA"/>
<stop offset="0.5119" stop-color="#A55EEA"/>
<stop offset="0.994" stop-color="#A55EEA"/>
</linearGradient>
<linearGradient id="paint3_linear" x1="3.01069" y1="75.9967" x2="107.642" y2="75.9967" gradientUnits="userSpaceOnUse">
<stop stop-color="#A55EEA"/>
<stop offset="0.3056" stop-color="#A55EEA"/>
<stop offset="0.6806" stop-color="#A55EEA"/>
<stop offset="1" stop-color="#A55EEA"/>
</linearGradient>
<linearGradient id="paint4_linear" x1="107.803" y1="25" x2="107.803" y2="14.5298" gradientUnits="userSpaceOnUse">
<stop stop-color="#A55EEA"/>
<stop offset="1" stop-color="#554663"/>
</linearGradient>
</defs>
</svg>
