<svg width="232" height="110" viewBox="0 0 232 110" fill="none" xmlns="http://www.w3.org/2000/svg">
<path d="M215.587 110H183.959L183.922 107.095C183.554 65.4998 149.425 31.6282 107.793 31.6282C66.1986 31.6282 32.0328 65.463 31.665 107.095L31.6282 110H0L0.0367736 107.021C0.220659 78.5189 11.4376 51.7085 31.5914 31.5547C51.9291 11.217 78.997 0 107.793 0C136.59 0 163.621 11.217 183.995 31.5547C204.149 51.7085 215.366 78.5189 215.55 107.021L215.587 110ZM189.733 104.116H209.592C208.673 78.2614 198.191 54.099 179.839 35.7105C160.605 16.4761 135.008 5.88432 107.793 5.88432C80.5784 5.88432 54.9816 16.4761 35.7472 35.7105C17.3955 54.0622 6.87729 78.2614 5.99465 104.116H25.8542C26.7369 83.4838 35.2691 64.2126 50.0535 49.5386C65.5366 34.1658 86.0214 25.7439 107.793 25.7439C129.565 25.7439 150.05 34.2026 165.533 49.5386C180.318 64.2126 188.85 83.4838 189.733 104.116Z" fill="url(#paint0_linear)"/>
<path d="M28.7596 107.058C29.1274 63.7713 64.47 28.6861 107.83 28.6861C151.19 28.6861 186.533 63.7713 186.901 107.058H212.645C212.461 79.328 201.575 53.2531 181.936 33.651C162.15 13.8649 135.817 2.94217 107.83 2.94217C79.8428 2.94217 53.5105 13.8282 33.7245 33.651C14.0856 53.2899 3.19957 79.328 3.01569 107.058H28.7596Z" fill="#D2D2D2"/>
<path d="M17.1381 55.0919C8.01736 70.7221 3.12602 88.5222 3.01569 107.058H28.7596C28.8699 92.8251 32.7683 79.5118 39.4985 68.0006L17.1381 55.0919Z" fill="url(#paint1_linear)"/>
<path d="M55.4597 16.9174C47.5894 21.4778 40.3076 27.0679 33.6877 33.651C14.0488 53.2899 3.16283 79.328 2.97894 107.058H28.7228C28.9803 78.1143 44.8679 52.8118 68.3317 39.241L55.4597 16.9174Z" fill="url(#paint2_linear)"/>
<path d="M107.646 2.94217C79.7325 2.97895 53.4738 13.9017 33.6877 33.651C14.0488 53.2899 3.16283 79.328 2.97894 107.058H28.7228C29.0906 63.8449 64.323 28.7964 107.609 28.6861V2.94217H107.646Z" fill="url(#paint3_linear)"/>
<path d="M159.87 16.7335C144.203 7.72318 126.366 2.94217 107.83 2.94217C79.8428 2.94217 53.5105 13.8282 33.7245 33.651C14.0856 53.2899 3.19957 79.328 3.01569 107.058H28.7596C29.1274 63.7713 64.47 28.6861 107.83 28.6861C122.063 28.6861 135.45 32.4741 146.998 39.094L159.87 16.7335Z" fill="url(#paint4_linear)"/>
<path d="M175.941 67.7065L198.302 54.7977C193.815 47.1849 188.335 40.0502 181.936 33.651C162.15 13.8649 135.817 2.94217 107.83 2.94217C79.8428 2.94217 53.5105 13.8282 33.7245 33.651C14.0856 53.2899 3.19957 79.328 3.01569 107.058H28.7596C29.1274 63.7713 64.4701 28.6861 107.83 28.6861C136.81 28.6861 162.187 44.3531 175.941 67.7065Z" fill="url(#paint5_linear)"/>
<path d="M197.607 54.391L196.741 55.891L198.473 55.891L207.541 55.891L209.273 55.891L208.407 54.391L203.873 46.5383L203.007 45.0383L202.141 46.5383L197.607 54.391Z" fill="#554663" stroke="url(#paint6_linear)" stroke-width="2"/>
<path d="M214.787 36.83L212.507 38.1459C213.177 38.2705 213.666 38.5992 213.973 39.132C214.131 39.4055 214.223 39.6814 214.248 39.9599C214.274 40.2384 214.239 40.4782 214.145 40.6793C214.052 40.8832 213.921 41.0602 213.752 41.2103C213.585 41.3633 213.3 41.5562 212.897 41.7889L210.262 43.3099L209.576 42.1217L211.948 40.752C212.419 40.4802 212.705 40.2851 212.806 40.1668C212.907 40.0484 212.96 39.9103 212.967 39.7524C212.978 39.5957 212.934 39.4314 212.835 39.2594C212.721 39.0621 212.571 38.9136 212.386 38.8138C212.2 38.7141 211.989 38.6838 211.752 38.7228C211.52 38.763 211.215 38.8921 210.837 39.1102L208.587 40.4091L207.901 39.2208L214.101 35.6417L214.787 36.83ZM216.06 41.575L217.16 40.9402L217.846 42.1284L216.746 42.7632L216.06 41.575ZM210.961 44.5193L215.451 41.9265L216.137 43.1148L211.647 45.7075L210.961 44.5193ZM211.993 46.9906L212.611 48.4432C212.467 48.5569 212.388 48.6717 212.376 48.7876C212.357 48.9492 212.417 49.1512 212.557 49.3937C212.736 49.7038 212.917 49.9095 213.099 50.0108C213.222 50.0793 213.367 50.1005 213.536 50.0743C213.656 50.054 213.848 49.9673 214.113 49.8143L214.769 49.4359C214.079 49.3607 213.578 49.0524 213.265 48.5111C212.917 47.9078 212.896 47.2827 213.203 46.6357C213.447 46.1267 213.869 45.6989 214.469 45.3522C215.222 44.9176 215.901 44.766 216.507 44.8974C217.114 45.0315 217.573 45.3678 217.884 45.9063C218.205 46.4616 218.226 47.0605 217.946 47.703L218.576 47.3392L219.218 48.4513L215.189 50.778C214.659 51.084 214.237 51.2689 213.925 51.3329C213.612 51.3969 213.335 51.3931 213.095 51.3215C212.854 51.2499 212.615 51.106 212.378 50.8898C212.142 50.6765 211.907 50.3682 211.675 49.9651C211.235 49.2039 211.055 48.5884 211.133 48.1185C211.208 47.6502 211.446 47.3005 211.846 47.0694C211.886 47.0466 211.935 47.0203 211.993 46.9906ZM215.24 46.531C214.763 46.806 214.467 47.0995 214.35 47.4113C214.237 47.7243 214.259 48.0161 214.416 48.2868C214.583 48.5771 214.838 48.7573 215.179 48.8272C215.523 48.8956 215.917 48.8011 216.363 48.544C216.828 48.2754 217.118 47.9802 217.233 47.6583C217.347 47.3364 217.32 47.0288 217.151 46.7356C216.987 46.4509 216.739 46.2798 216.409 46.2223C216.084 46.166 215.694 46.2689 215.24 46.531ZM222.292 49.8288L220.012 51.1447C220.682 51.2693 221.17 51.598 221.478 52.1308C221.636 52.4043 221.728 52.6803 221.753 52.9587C221.779 53.2372 221.744 53.477 221.65 53.6781C221.557 53.882 221.426 54.059 221.257 54.2092C221.09 54.3621 220.805 54.555 220.402 54.7878L217.767 56.3087L217.081 55.1205L219.453 53.7509C219.924 53.4791 220.21 53.284 220.311 53.1656C220.412 53.0473 220.465 52.9092 220.472 52.7513C220.483 52.5946 220.439 52.4302 220.339 52.2583C220.226 52.0609 220.076 51.9124 219.891 51.8127C219.705 51.713 219.494 51.6826 219.257 51.7216C219.025 51.7618 218.72 51.891 218.342 52.1091L216.092 53.4079L215.406 52.2197L221.605 48.6406L222.292 49.8288Z" fill="#191919"/>
<defs>
<linearGradient id="paint0_linear" x1="164.949" y1="106.221" x2="164.438" y2="4.25787e-06" gradientUnits="userSpaceOnUse">
<stop stop-color="#554663"/>
<stop offset="1" stop-color="white"/>
</linearGradient>
<linearGradient id="paint1_linear" x1="3.01068" y1="81.0763" x2="39.4899" y2="81.0763" gradientUnits="userSpaceOnUse">
<stop stop-color="#A55EEA"/>
<stop offset="1" stop-color="#554663"/>
</linearGradient>
<linearGradient id="paint2_linear" x1="3.01072" y1="61.9805" x2="68.3607" y2="61.9805" gradientUnits="userSpaceOnUse">
<stop stop-color="#A55EEA"/>
<stop offset="0.5119" stop-color="#A55EEA"/>
<stop offset="0.994" stop-color="#A55EEA"/>
</linearGradient>
<linearGradient id="paint3_linear" x1="3.01072" y1="54.9967" x2="107.642" y2="54.9967" gradientUnits="userSpaceOnUse">
<stop stop-color="#A55EEA"/>
<stop offset="0.3056" stop-color="#A55EEA"/>
<stop offset="0.6806" stop-color="#A55EEA"/>
<stop offset="1" stop-color="#A55EEA"/>
</linearGradient>
<linearGradient id="paint4_linear" x1="3.01068" y1="54.9957" x2="159.87" y2="54.9957" gradientUnits="userSpaceOnUse">
<stop stop-color="#A55EEA"/>
<stop offset="0.2421" stop-color="#A55EEA"/>
<stop offset="0.498" stop-color="#A55EEA"/>
<stop offset="0.7619" stop-color="#A55EEA"/>
<stop offset="0.994" stop-color="#A55EEA"/>
</linearGradient>
<linearGradient id="paint5_linear" x1="3.01068" y1="54.9957" x2="198.306" y2="54.9957" gradientUnits="userSpaceOnUse">
<stop stop-color="#A55EEA"/>
<stop offset="0.1865" stop-color="#A55EEA"/>
<stop offset="0.371" stop-color="#A55EEA"/>
<stop offset="0.5714" stop-color="#A55EEA"/>
<stop offset="0.8155" stop-color="#A55EEA"/>
<stop offset="1" stop-color="#A55EEA"/>
</linearGradient>
<linearGradient id="paint6_linear" x1="198.473" y1="54.891" x2="207.541" y2="49.6558" gradientUnits="userSpaceOnUse">
<stop stop-color="#A55EEA"/>
<stop offset="1" stop-color="#554663"/>
</linearGradient>
</defs>
</svg>
