<svg width="231" height="110" viewBox="0 0 231 110" fill="none" xmlns="http://www.w3.org/2000/svg">
<path d="M230.587 110H198.959L198.922 107.095C198.554 65.4998 164.425 31.6282 122.793 31.6282C81.1986 31.6282 47.0328 65.463 46.665 107.095L46.6282 110H15L15.0368 107.021C15.2207 78.5189 26.4376 51.7085 46.5914 31.5547C66.9291 11.217 93.997 0 122.793 0C151.59 0 178.621 11.217 198.995 31.5547C219.149 51.7085 230.366 78.5189 230.55 107.021L230.587 110ZM204.733 104.116H224.592C223.673 78.2614 213.191 54.099 194.839 35.7105C175.605 16.4761 150.008 5.88432 122.793 5.88432C95.5784 5.88432 69.9816 16.4761 50.7472 35.7105C32.3955 54.0622 21.8773 78.2614 20.9946 104.116H40.8542C41.7369 83.4838 50.2691 64.2126 65.0535 49.5386C80.5366 34.1658 101.021 25.7439 122.793 25.7439C144.565 25.7439 165.05 34.2026 180.533 49.5386C195.318 64.2126 203.85 83.4838 204.733 104.116Z" fill="url(#paint0_linear)"/>
<path d="M43.7596 107.058C44.1274 63.7713 79.47 28.6861 122.83 28.6861C166.19 28.6861 201.533 63.7713 201.901 107.058H227.645C227.461 79.328 216.575 53.2531 196.936 33.651C177.15 13.8649 150.817 2.94217 122.83 2.94217C94.8428 2.94217 68.5105 13.8282 48.7245 33.651C29.0856 53.2899 18.1996 79.328 18.0157 107.058H43.7596Z" fill="#D2D2D2"/>
<path d="M32.1381 55.0919C23.0174 70.7221 18.126 88.5222 18.0157 107.058H43.7596C43.8699 92.8251 47.7683 79.5118 54.4985 68.0006L32.1381 55.0919Z" fill="url(#paint1_linear)"/>
<path d="M32.052 56.2337L33.784 56.2337L32.918 54.7337L28.3843 46.881L27.5182 45.381L26.6522 46.881L22.1185 54.7337L21.2525 56.2337L22.9845 56.2337L32.052 56.2337Z" fill="#554663" stroke="url(#paint2_linear)" stroke-width="2"/>
<path d="M8.981 52.8227L9.62065 51.7148L10.2803 52.0957C10.1378 51.8217 10.0669 51.5214 10.0675 51.1948C10.0682 50.8681 10.1547 50.5554 10.3273 50.2566C10.6284 49.735 11.0883 49.4104 11.707 49.2828C12.3258 49.1551 13.0002 49.3021 13.7303 49.7236C14.4802 50.1566 14.958 50.6767 15.1636 51.2841C15.3664 51.8898 15.3173 52.4535 15.0162 52.975C14.8729 53.2231 14.6934 53.4201 14.4775 53.5661C14.2633 53.7093 13.9721 53.8231 13.6039 53.9074L15.8662 55.2136L15.1802 56.4018L8.981 52.8227ZM11.829 52.8996C12.3336 53.191 12.7649 53.3065 13.1229 53.2464C13.4781 53.1846 13.7387 53.0099 13.9047 52.7223C14.0642 52.4461 14.0869 52.1528 13.9728 51.8426C13.8559 51.5308 13.5452 51.2292 13.0406 50.9379C12.5698 50.6661 12.1657 50.5587 11.8283 50.6157C11.4909 50.6728 11.2416 50.8408 11.0805 51.1199C10.9128 51.4103 10.8864 51.7164 11.0013 52.0383C11.1133 52.3586 11.3892 52.6457 11.829 52.8996ZM14.0805 49.0293C13.6858 48.8014 13.36 48.4836 13.103 48.0759C12.846 47.6682 12.7227 47.2305 12.7333 46.763C12.7455 46.2927 12.8785 45.8376 13.1324 45.3979C13.5247 44.7185 14.0674 44.2895 14.7607 44.1108C15.4511 43.9306 16.1332 44.035 16.807 44.424C17.4864 44.8162 17.9233 45.3617 18.1176 46.0602C18.3107 46.7543 18.2152 47.4341 17.8311 48.0994C17.5935 48.511 17.2734 48.8505 16.8709 49.118C16.47 49.3827 16.0344 49.509 15.564 49.4968C15.0909 49.483 14.5964 49.3271 14.0805 49.0293ZM14.847 47.8481C15.2924 48.1052 15.6946 48.1964 16.0535 48.1217C16.4123 48.047 16.6813 47.8546 16.8603 47.5445C17.0394 47.2344 17.0707 46.9067 16.9543 46.5614C16.8396 46.2132 16.5567 45.9089 16.1056 45.6485C15.6659 45.3946 15.2665 45.305 14.9077 45.3797C14.5504 45.4516 14.2823 45.6426 14.1032 45.9527C13.9242 46.2628 13.8921 46.5919 14.0068 46.9401C14.1215 47.2882 14.4016 47.5909 14.847 47.8481ZM17.1371 43.735C16.7424 43.5072 16.4166 43.1894 16.1596 42.7816C15.9026 42.3739 15.7794 41.9363 15.7899 41.4688C15.8021 40.9984 15.9352 40.5434 16.1891 40.1036C16.5813 39.4242 17.1241 38.9952 17.8173 38.8166C18.5078 38.6364 19.1899 38.7407 19.8636 39.1297C20.543 39.522 20.9799 40.0674 21.1742 40.766C21.3674 41.4601 21.2719 42.1398 20.8878 42.8051C20.6501 43.2167 20.33 43.5562 19.9275 43.8238C19.5266 44.0885 19.091 44.2147 18.6207 44.2025C18.1475 44.1887 17.653 44.0329 17.1371 43.735ZM17.9037 42.5538C18.3491 42.811 18.7512 42.9022 19.1101 42.8275C19.469 42.7528 19.7379 42.5604 19.917 42.2503C20.096 41.9402 20.1273 41.6124 20.011 41.2671C19.8962 40.919 19.6133 40.6147 19.1623 40.3543C18.7225 40.1003 18.3232 40.0108 17.9643 40.0855C17.6071 40.1574 17.3389 40.3484 17.1599 40.6585C16.9808 40.9686 16.9487 41.2977 17.0634 41.6458C17.1782 41.994 17.4582 42.2966 17.9037 42.5538ZM23.318 38.3614L22.632 39.5497L18.1412 36.9569L18.7784 35.8532L19.4169 36.2219C19.2243 35.8588 19.1232 35.5749 19.1136 35.3702C19.1057 35.1626 19.157 34.963 19.2677 34.7713C19.4239 34.5007 19.6492 34.283 19.9435 34.1184L20.7671 35.0844C20.5219 35.2097 20.3496 35.3583 20.2503 35.5303C20.1543 35.6966 20.1194 35.8644 20.1457 36.0337C20.1692 36.2014 20.2812 36.3882 20.4818 36.5942C20.684 36.7974 21.167 37.1196 21.931 37.5606L23.318 38.3614Z" fill="#191919"/>
<defs>
<linearGradient id="paint0_linear" x1="179.949" y1="106.221" x2="179.438" y2="4.25787e-06" gradientUnits="userSpaceOnUse">
<stop stop-color="#554663"/>
<stop offset="1" stop-color="white"/>
</linearGradient>
<linearGradient id="paint1_linear" x1="18.0107" y1="81.0763" x2="54.4899" y2="81.0763" gradientUnits="userSpaceOnUse">
<stop stop-color="#A55EEA"/>
<stop offset="1" stop-color="#554663"/>
</linearGradient>
<linearGradient id="paint2_linear" x1="32.052" y1="55.2337" x2="22.9845" y2="49.9986" gradientUnits="userSpaceOnUse">
<stop stop-color="#A55EEA"/>
<stop offset="1" stop-color="#554663"/>
</linearGradient>
</defs>
</svg>
