<svg width="241" height="133" viewBox="0 0 241 133" fill="none" xmlns="http://www.w3.org/2000/svg">
<path d="M215.587 110H183.959L183.922 107.095C183.554 65.4998 149.425 31.6282 107.793 31.6282C66.1986 31.6282 32.0328 65.463 31.665 107.095L31.6282 110H0L0.0367736 107.021C0.220659 78.5189 11.4376 51.7085 31.5914 31.5547C51.9291 11.217 78.997 0 107.793 0C136.59 0 163.621 11.217 183.995 31.5547C204.149 51.7085 215.366 78.5189 215.55 107.021L215.587 110ZM189.733 104.116H209.592C208.673 78.2614 198.191 54.099 179.839 35.7105C160.605 16.4761 135.008 5.88432 107.793 5.88432C80.5784 5.88432 54.9816 16.4761 35.7472 35.7105C17.3955 54.0622 6.87729 78.2614 5.99465 104.116H25.8542C26.7369 83.4838 35.2691 64.2126 50.0535 49.5386C65.5366 34.1658 86.0214 25.7439 107.793 25.7439C129.565 25.7439 150.05 34.2026 165.533 49.5386C180.318 64.2126 188.85 83.4838 189.733 104.116Z" fill="url(#paint0_linear)"/>
<path d="M28.7596 107.058C29.1274 63.7713 64.4701 28.6861 107.83 28.6861C151.19 28.6861 186.533 63.7713 186.901 107.058H212.645C212.461 79.328 201.575 53.2531 181.936 33.651C162.15 13.8649 135.817 2.94217 107.83 2.94217C79.8429 2.94217 53.5106 13.8282 33.7245 33.651C14.0856 53.2899 3.19963 79.328 3.01575 107.058H28.7596Z" fill="#D2D2D2"/>
<path d="M17.1381 55.0919C8.01742 70.7221 3.12608 88.5222 3.01575 107.058H28.7596C28.87 92.8251 32.7683 79.5118 39.4985 68.0006L17.1381 55.0919Z" fill="url(#paint1_linear)"/>
<path d="M55.4597 16.9174C47.5894 21.4778 40.3075 27.0679 33.6877 33.651C14.0488 53.2899 3.16277 79.328 2.97888 107.058H28.7228C28.9802 78.1143 44.8679 52.8118 68.3316 39.241L55.4597 16.9174Z" fill="url(#paint2_linear)"/>
<path d="M107.646 2.94217C79.7325 2.97895 53.4737 13.9017 33.6877 33.651C14.0488 53.2899 3.16277 79.328 2.97888 107.058H28.7228C29.0905 63.8449 64.3229 28.7964 107.609 28.6861V2.94217H107.646Z" fill="url(#paint3_linear)"/>
<path d="M159.87 16.7335C144.203 7.72318 126.366 2.94217 107.83 2.94217C79.8429 2.94217 53.5106 13.8282 33.7245 33.651C14.0856 53.2899 3.19963 79.328 3.01575 107.058H28.7596C29.1274 63.7713 64.4701 28.6861 107.83 28.6861C122.063 28.6861 135.45 32.4741 146.998 39.094L159.87 16.7335Z" fill="url(#paint4_linear)"/>
<path d="M175.941 67.7065L198.302 54.7977C193.815 47.1849 188.335 40.0502 181.936 33.651C162.15 13.8649 135.817 2.94217 107.83 2.94217C79.8429 2.94217 53.5106 13.8282 33.7245 33.651C14.0856 53.2899 3.19963 79.328 3.01575 107.058H28.7596C29.1274 63.7713 64.4701 28.6861 107.83 28.6861C136.81 28.6861 162.187 44.3531 175.941 67.7065Z" fill="url(#paint5_linear)"/>
<path d="M28.7596 107.058C29.1274 63.7713 64.4701 28.6861 107.83 28.6861C151.19 28.6861 186.533 63.7713 186.901 107.058H212.645C212.461 79.328 201.575 53.2531 181.936 33.651C162.15 13.8649 135.817 2.94217 107.83 2.94217C79.8429 2.94217 53.5106 13.8282 33.7245 33.651C14.0856 53.2899 3.19963 79.328 3.01575 107.058H28.7596Z" fill="url(#paint6_linear)"/>
<path d="M215.5 108.937L214 109.803L215.5 110.669L223.353 115.202L224.853 116.069V114.336V105.269V103.537L223.353 104.403L215.5 108.937Z" fill="#554663" stroke="url(#paint7_linear)" stroke-width="2"/>
<path d="M237.186 101.395V102.66H236.478C237.028 103.112 237.303 103.651 237.303 104.276C237.303 104.608 237.234 104.896 237.098 105.14C236.961 105.384 236.754 105.585 236.478 105.741C236.754 105.969 236.961 106.215 237.098 106.478C237.234 106.742 237.303 107.023 237.303 107.323C237.303 107.704 237.225 108.026 237.068 108.29C236.915 108.553 236.689 108.75 236.39 108.881C236.168 108.975 235.81 109.022 235.315 109.022H232V107.65H234.964C235.478 107.65 235.81 107.603 235.96 107.508C236.155 107.382 236.253 107.186 236.253 106.923C236.253 106.731 236.194 106.55 236.077 106.381C235.96 106.211 235.787 106.089 235.56 106.014C235.335 105.939 234.979 105.902 234.49 105.902H232V104.53H234.842C235.346 104.53 235.672 104.506 235.818 104.457C235.965 104.408 236.074 104.331 236.146 104.227C236.217 104.126 236.253 103.988 236.253 103.812C236.253 103.601 236.196 103.41 236.082 103.241C235.968 103.072 235.804 102.95 235.589 102.875C235.374 102.803 235.018 102.767 234.52 102.767H232V101.395H237.186ZM235.604 111.42L235.828 110.175C236.329 110.314 236.701 110.555 236.941 110.897C237.182 111.239 237.303 111.747 237.303 112.421C237.303 113.033 237.229 113.488 237.083 113.788C236.94 114.087 236.756 114.297 236.531 114.418C236.31 114.541 235.901 114.603 235.306 114.603L233.704 114.589C233.248 114.589 232.911 114.61 232.693 114.652C232.479 114.698 232.247 114.781 232 114.901V113.544C232.091 113.508 232.226 113.464 232.405 113.412C232.487 113.389 232.54 113.373 232.566 113.363C232.339 113.129 232.168 112.878 232.054 112.611C231.94 112.344 231.883 112.059 231.883 111.757C231.883 111.223 232.028 110.801 232.317 110.492C232.607 110.186 232.973 110.033 233.416 110.033C233.709 110.033 233.969 110.103 234.197 110.243C234.428 110.383 234.604 110.578 234.725 110.829C234.848 111.083 234.956 111.447 235.047 111.923C235.167 112.564 235.28 113.008 235.384 113.256H235.521C235.784 113.256 235.971 113.19 236.082 113.06C236.196 112.93 236.253 112.684 236.253 112.323C236.253 112.079 236.204 111.888 236.106 111.752C236.012 111.615 235.844 111.504 235.604 111.42ZM234.49 113.256C234.432 113.08 234.362 112.801 234.28 112.421C234.199 112.04 234.119 111.791 234.041 111.674C233.914 111.495 233.753 111.405 233.558 111.405C233.366 111.405 233.2 111.477 233.06 111.62C232.92 111.763 232.85 111.945 232.85 112.167C232.85 112.414 232.931 112.65 233.094 112.875C233.217 113.041 233.369 113.15 233.548 113.202C233.665 113.238 233.888 113.256 234.217 113.256H234.49ZM232 115.301L234.671 117.172L237.186 115.38V117.054L235.76 117.972L237.186 118.939V120.55L234.729 118.793L232 120.712V119.027L233.606 117.972L232 116.908V115.301Z" fill="#191919"/>
<defs>
<linearGradient id="paint0_linear" x1="164.949" y1="106.221" x2="164.438" y2="4.25787e-06" gradientUnits="userSpaceOnUse">
<stop stop-color="#554663"/>
<stop offset="1" stop-color="white"/>
</linearGradient>
<linearGradient id="paint1_linear" x1="3.01075" y1="81.0763" x2="39.49" y2="81.0763" gradientUnits="userSpaceOnUse">
<stop stop-color="#A55EEA"/>
<stop offset="1" stop-color="#554663"/>
</linearGradient>
<linearGradient id="paint2_linear" x1="3.01066" y1="61.9805" x2="68.3606" y2="61.9805" gradientUnits="userSpaceOnUse">
<stop stop-color="#A55EEA"/>
<stop offset="0.5119" stop-color="#A55EEA"/>
<stop offset="0.994" stop-color="#A55EEA"/>
</linearGradient>
<linearGradient id="paint3_linear" x1="3.01066" y1="54.9967" x2="107.642" y2="54.9967" gradientUnits="userSpaceOnUse">
<stop stop-color="#A55EEA"/>
<stop offset="0.3056" stop-color="#A55EEA"/>
<stop offset="0.6806" stop-color="#A55EEA"/>
<stop offset="1" stop-color="#A55EEA"/>
</linearGradient>
<linearGradient id="paint4_linear" x1="3.01075" y1="54.9957" x2="159.87" y2="54.9957" gradientUnits="userSpaceOnUse">
<stop stop-color="#A55EEA"/>
<stop offset="0.2421" stop-color="#A55EEA"/>
<stop offset="0.498" stop-color="#A55EEA"/>
<stop offset="0.7619" stop-color="#A55EEA"/>
<stop offset="0.994" stop-color="#A55EEA"/>
</linearGradient>
<linearGradient id="paint5_linear" x1="3.01075" y1="54.9957" x2="198.306" y2="54.9957" gradientUnits="userSpaceOnUse">
<stop stop-color="#A55EEA"/>
<stop offset="0.1865" stop-color="#A55EEA"/>
<stop offset="0.371" stop-color="#A55EEA"/>
<stop offset="0.5714" stop-color="#A55EEA"/>
<stop offset="0.8155" stop-color="#A55EEA"/>
<stop offset="1" stop-color="#A55EEA"/>
</linearGradient>
<linearGradient id="paint6_linear" x1="3.01075" y1="54.9957" x2="212.623" y2="54.9957" gradientUnits="userSpaceOnUse">
<stop stop-color="#A55EEA"/>
<stop offset="0.131" stop-color="#A55EEA"/>
<stop offset="0.2956" stop-color="#A55EEA"/>
<stop offset="0.4881" stop-color="#A55EEA"/>
<stop offset="0.6647" stop-color="#A55EEA"/>
<stop offset="0.8333" stop-color="#A55EEA"/>
<stop offset="1" stop-color="#A55EEA"/>
</linearGradient>
<linearGradient id="paint7_linear" x1="216" y1="109.803" x2="226.47" y2="109.803" gradientUnits="userSpaceOnUse">
<stop stop-color="#A55EEA"/>
<stop offset="1" stop-color="#554663"/>
</linearGradient>
</defs>
</svg>
