<svg width="216" height="127" viewBox="0 0 216 127" fill="none" xmlns="http://www.w3.org/2000/svg">
<path d="M215.587 127H183.959L183.922 124.095C183.554 82.4998 149.425 48.6282 107.793 48.6282C66.1986 48.6282 32.0328 82.463 31.665 124.095L31.6282 127H0L0.0367736 124.021C0.220659 95.5189 11.4376 68.7085 31.5914 48.5547C51.9291 28.217 78.997 17 107.793 17C136.59 17 163.621 28.217 183.995 48.5547C204.149 68.7085 215.366 95.5189 215.55 124.021L215.587 127ZM189.733 121.116H209.592C208.673 95.2614 198.191 71.099 179.839 52.7105C160.605 33.4761 135.008 22.8843 107.793 22.8843C80.5784 22.8843 54.9816 33.4761 35.7472 52.7105C17.3955 71.0622 6.87729 95.2614 5.99465 121.116H25.8542C26.7369 100.484 35.2691 81.2126 50.0535 66.5386C65.5366 51.1658 86.0214 42.7439 107.793 42.7439C129.565 42.7439 150.05 51.2026 165.533 66.5386C180.318 81.2126 188.85 100.484 189.733 121.116Z" fill="url(#paint0_linear)"/>
<path d="M28.7596 124.058C29.1274 80.7713 64.47 45.6861 107.83 45.6861C151.19 45.6861 186.533 80.7713 186.901 124.058H212.645C212.461 96.328 201.575 70.2531 181.936 50.651C162.15 30.8649 135.817 19.9422 107.83 19.9422C79.8428 19.9422 53.5105 30.8282 33.7245 50.651C14.0856 70.2899 3.19957 96.328 3.01569 124.058H28.7596Z" fill="#D2D2D2"/>
<path d="M17.1381 72.0919C8.01736 87.7221 3.12602 105.522 3.01569 124.058H28.7596C28.8699 109.825 32.7683 96.5118 39.4985 85.0006L17.1381 72.0919Z" fill="url(#paint1_linear)"/>
<path d="M55.4597 33.9174C47.5894 38.4778 40.3076 44.0679 33.6877 50.651C14.0488 70.2899 3.16283 96.328 2.97894 124.058H28.7228C28.9803 95.1143 44.8679 69.8118 68.3317 56.241L55.4597 33.9174Z" fill="url(#paint2_linear)"/>
<path d="M107.646 19.9422C79.7325 19.9789 53.4738 30.9017 33.6877 50.651C14.0488 70.2899 3.16283 96.328 2.97894 124.058H28.7228C29.0906 80.8449 64.323 45.7964 107.609 45.6861V19.9422H107.646Z" fill="url(#paint3_linear)"/>
<path d="M159.87 33.7335C144.203 24.7232 126.366 19.9422 107.83 19.9422C79.8428 19.9422 53.5105 30.8282 33.7245 50.651C14.0856 70.2899 3.19957 96.328 3.01569 124.058H28.7596C29.1274 80.7713 64.47 45.6861 107.83 45.6861C122.063 45.6861 135.45 49.4741 146.998 56.094L159.87 33.7335Z" fill="url(#paint4_linear)"/>
<path d="M159.816 33.0833L159.665 34.8087L161.235 34.0768L169.453 30.2447L171.023 29.5127L169.604 28.5192L162.176 23.3183L160.757 22.3248L160.606 24.0503L159.816 33.0833Z" fill="#554663" stroke="url(#paint5_linear)" stroke-width="2"/>
<path d="M161.587 14.1802L160.463 13.3932L161.981 11.2254C162.302 10.7667 162.485 10.4539 162.53 10.287C162.578 10.1174 162.573 9.957 162.516 9.80578C162.461 9.65644 162.358 9.52855 162.206 9.42213C162.012 9.28583 161.8 9.21686 161.57 9.21523C161.341 9.2136 161.135 9.28024 160.953 9.41515C160.774 9.55193 160.518 9.85764 160.186 10.3323L158.839 12.2562L157.715 11.4692L160.689 7.22143L161.733 7.9524L161.296 8.57637C162.003 8.35592 162.638 8.44268 163.2 8.83664C163.448 9.01028 163.643 9.21432 163.785 9.44875C163.929 9.68051 164.004 9.90213 164.011 10.1136C164.021 10.3269 163.984 10.5356 163.9 10.7396C163.82 10.9455 163.665 11.2124 163.435 11.5404L161.587 14.1802ZM164 12.6153C164.261 12.242 164.606 11.9451 165.035 11.7246C165.463 11.5041 165.91 11.4195 166.375 11.4708C166.842 11.5239 167.284 11.6961 167.7 11.9874C168.343 12.4374 168.723 13.0154 168.84 13.7216C168.96 14.4251 168.796 15.0955 168.35 15.7328C167.9 16.3755 167.319 16.7631 166.606 16.8958C165.897 17.0277 165.229 16.8734 164.599 16.4327C164.21 16.1601 163.9 15.8117 163.668 15.3874C163.439 14.9649 163.352 14.52 163.405 14.0525C163.46 13.5823 163.658 13.1033 164 12.6153ZM165.11 13.4819C164.815 13.9032 164.689 14.2959 164.732 14.6599C164.775 15.0239 164.943 15.3086 165.237 15.514C165.53 15.7194 165.854 15.7791 166.208 15.6933C166.565 15.6094 166.892 15.3541 167.191 14.9274C167.482 14.5115 167.607 14.1215 167.563 13.7574C167.523 13.3953 167.356 13.1115 167.063 12.9061C166.769 12.7008 166.444 12.64 166.087 12.724C165.731 12.8079 165.405 13.0606 165.11 13.4819ZM168.814 19.241L167.69 18.454L170.665 14.2063L171.709 14.9373L171.286 15.5412C171.664 15.381 171.956 15.305 172.161 15.3133C172.368 15.3235 172.562 15.3921 172.744 15.519C173 15.6983 173.197 15.9416 173.335 16.2491L172.301 16.9854C172.198 16.7302 172.065 16.5456 171.902 16.4318C171.745 16.3216 171.581 16.2722 171.41 16.2837C171.24 16.2925 171.045 16.3878 170.822 16.5696C170.602 16.7533 170.239 17.2065 169.733 17.9291L168.814 19.241ZM173.82 16.416L174.856 17.1414L174.45 17.7214C175.136 17.5302 175.736 17.6139 176.248 17.9724C176.52 18.1629 176.716 18.3841 176.838 18.6361C176.959 18.8882 177.005 19.1723 176.974 19.4886C177.319 19.3926 177.639 19.3643 177.934 19.4035C178.228 19.4427 178.498 19.5483 178.743 19.72C179.055 19.9385 179.275 20.1873 179.401 20.4666C179.529 20.7431 179.561 21.0414 179.496 21.3614C179.446 21.5969 179.279 21.9173 178.995 22.3226L177.094 25.0384L175.97 24.2514L177.67 21.8236C177.965 21.4023 178.117 21.1032 178.125 20.9264C178.133 20.6936 178.029 20.5016 177.813 20.3503C177.656 20.2402 177.474 20.1845 177.268 20.1834C177.063 20.1823 176.864 20.2537 176.672 20.3974C176.481 20.5384 176.246 20.8089 175.966 21.2089L174.538 23.2488L173.414 22.4618L175.044 20.1339C175.333 19.7206 175.5 19.44 175.544 19.292C175.588 19.144 175.588 19.0108 175.544 18.8924C175.502 18.7758 175.409 18.6671 175.265 18.5663C175.092 18.4449 174.903 18.3824 174.699 18.3786C174.495 18.3749 174.301 18.4395 174.117 18.5725C173.935 18.7075 173.701 18.9789 173.415 19.3869L171.97 21.4508L170.846 20.6638L173.82 16.416ZM181.125 23.4617L180.233 22.5635C180.636 22.2332 181.046 22.0674 181.464 22.0661C181.882 22.0648 182.367 22.2574 182.919 22.6439C183.42 22.9949 183.752 23.3163 183.913 23.6081C184.076 23.8972 184.143 24.1683 184.113 24.4214C184.087 24.6736 183.903 25.0438 183.562 25.5317L182.631 26.8353C182.37 27.2086 182.194 27.4967 182.103 27.6996C182.017 27.9017 181.953 28.1387 181.909 28.4104L180.798 27.6318C180.82 27.5366 180.862 27.4008 180.922 27.2242C180.95 27.1445 180.967 27.0912 180.974 27.0642C180.652 27.1165 180.348 27.1127 180.064 27.0529C179.78 26.9931 179.514 26.8764 179.266 26.7028C178.829 26.3966 178.567 26.0361 178.48 25.6214C178.395 25.2086 178.48 24.8209 178.734 24.4582C178.902 24.2182 179.109 24.0451 179.354 23.9387C179.601 23.8296 179.862 23.7977 180.136 23.8428C180.415 23.8871 180.776 24.0082 181.217 24.2062C181.812 24.4753 182.24 24.6382 182.502 24.6947L182.581 24.5828C182.732 24.3668 182.786 24.1761 182.743 24.0108C182.702 23.8427 182.533 23.6551 182.237 23.4479C182.037 23.3078 181.853 23.2386 181.685 23.2402C181.519 23.2391 181.332 23.3129 181.125 23.4617ZM181.99 25.4267C181.812 25.3739 181.544 25.2716 181.186 25.1198C180.827 24.968 180.577 24.8905 180.436 24.8873C180.217 24.8886 180.051 24.9692 179.939 25.1292C179.829 25.2865 179.792 25.4636 179.829 25.6604C179.866 25.8572 179.976 26.0191 180.157 26.1461C180.36 26.288 180.6 26.3567 180.877 26.3522C181.084 26.3461 181.26 26.2846 181.405 26.1679C181.502 26.0924 181.644 25.92 181.833 25.6507L181.99 25.4267ZM182.777 29.0182L186.883 23.1545L188.007 23.9415L183.901 29.8051L182.777 29.0182Z" fill="#191919"/>
<defs>
<linearGradient id="paint0_linear" x1="164.949" y1="123.221" x2="164.438" y2="17" gradientUnits="userSpaceOnUse">
<stop stop-color="#554663"/>
<stop offset="1" stop-color="white"/>
</linearGradient>
<linearGradient id="paint1_linear" x1="3.01068" y1="98.0763" x2="39.4899" y2="98.0763" gradientUnits="userSpaceOnUse">
<stop stop-color="#A55EEA"/>
<stop offset="1" stop-color="#554663"/>
</linearGradient>
<linearGradient id="paint2_linear" x1="3.01072" y1="78.9805" x2="68.3607" y2="78.9805" gradientUnits="userSpaceOnUse">
<stop stop-color="#A55EEA"/>
<stop offset="0.5119" stop-color="#A55EEA"/>
<stop offset="0.994" stop-color="#A55EEA"/>
</linearGradient>
<linearGradient id="paint3_linear" x1="3.01072" y1="71.9967" x2="107.642" y2="71.9967" gradientUnits="userSpaceOnUse">
<stop stop-color="#A55EEA"/>
<stop offset="0.3056" stop-color="#A55EEA"/>
<stop offset="0.6806" stop-color="#A55EEA"/>
<stop offset="1" stop-color="#A55EEA"/>
</linearGradient>
<linearGradient id="paint4_linear" x1="3.01068" y1="71.9957" x2="159.87" y2="71.9957" gradientUnits="userSpaceOnUse">
<stop stop-color="#A55EEA"/>
<stop offset="0.2421" stop-color="#A55EEA"/>
<stop offset="0.498" stop-color="#A55EEA"/>
<stop offset="0.7619" stop-color="#A55EEA"/>
<stop offset="0.994" stop-color="#A55EEA"/>
</linearGradient>
<linearGradient id="paint5_linear" x1="160.812" y1="33.1704" x2="166.818" y2="24.5937" gradientUnits="userSpaceOnUse">
<stop stop-color="#A55EEA"/>
<stop offset="1" stop-color="#554663"/>
</linearGradient>
</defs>
</svg>
