<svg width="216" height="126" viewBox="0 0 216 126" fill="none" xmlns="http://www.w3.org/2000/svg">
<path d="M215.587 126H183.959L183.922 123.095C183.554 81.4998 149.425 47.6282 107.793 47.6282C66.1986 47.6282 32.0328 81.463 31.665 123.095L31.6282 126H0L0.0367736 123.021C0.220659 94.5189 11.4376 67.7085 31.5914 47.5547C51.9291 27.217 78.997 16 107.793 16C136.59 16 163.621 27.217 183.995 47.5547C204.149 67.7085 215.366 94.5189 215.55 123.021L215.587 126ZM189.733 120.116H209.592C208.673 94.2614 198.191 70.099 179.839 51.7105C160.605 32.4761 135.008 21.8843 107.793 21.8843C80.5784 21.8843 54.9816 32.4761 35.7472 51.7105C17.3955 70.0622 6.87729 94.2614 5.99465 120.116H25.8542C26.7369 99.4838 35.2691 80.2126 50.0535 65.5386C65.5366 50.1658 86.0214 41.7439 107.793 41.7439C129.565 41.7439 150.05 50.2026 165.533 65.5386C180.318 80.2126 188.85 99.4838 189.733 120.116Z" fill="url(#paint0_linear)"/>
<path d="M28.7596 123.058C29.1274 79.7713 64.4701 44.6861 107.83 44.6861C151.19 44.6861 186.533 79.7713 186.901 123.058H212.645C212.461 95.328 201.575 69.2531 181.936 49.651C162.15 29.8649 135.817 18.9422 107.83 18.9422C79.8428 18.9422 53.5105 29.8282 33.7245 49.651C14.0856 69.2899 3.19958 95.328 3.01569 123.058H28.7596Z" fill="#D2D2D2"/>
<path d="M17.1381 71.0919C8.01736 86.7221 3.12602 104.522 3.01569 123.058H28.7596C28.8699 108.825 32.7683 95.5118 39.4985 84.0006L17.1381 71.0919Z" fill="url(#paint1_linear)"/>
<path d="M55.4597 32.9174C47.5894 37.4778 40.3076 43.0679 33.6877 49.651C14.0488 69.2899 3.1628 95.328 2.97891 123.058H28.7228C28.9802 94.1143 44.8679 68.8118 68.3316 55.241L55.4597 32.9174Z" fill="url(#paint2_linear)"/>
<path d="M55.6572 34.8393L57.2269 35.5713L57.076 33.8458L56.2857 24.8128L56.1347 23.0874L54.7159 24.0808L47.2883 29.2817L45.8694 30.2752L47.4392 31.0072L55.6572 34.8393Z" fill="#554663" stroke="url(#paint3_linear)" stroke-width="2"/>
<path d="M41.4714 24.6295L37.3657 18.7658L38.4896 17.9788L42.5954 23.8425L41.4714 24.6295ZM41.9622 21.0313C41.7008 20.6579 41.5398 20.2322 41.4792 19.7541C41.4186 19.2759 41.4918 18.8272 41.699 18.408C41.9088 17.9869 42.2217 17.6307 42.6377 17.3394C43.2803 16.8894 43.9535 16.73 44.6573 16.8611C45.3592 16.9896 45.9333 17.3724 46.3795 18.0097C46.8295 18.6523 46.9949 19.3313 46.8758 20.0465C46.7575 20.7572 46.3837 21.3329 45.7544 21.7736C45.3651 22.0462 44.9315 22.2186 44.4536 22.291C43.9784 22.3614 43.5303 22.2917 43.1091 22.0819C42.6862 21.8694 42.3038 21.5192 41.9622 21.0313ZM43.1561 20.2847C43.4511 20.706 43.777 20.9586 44.1338 21.0425C44.4907 21.1265 44.8157 21.0658 45.1091 20.8604C45.4024 20.655 45.5693 20.3713 45.6098 20.0091C45.6529 19.6451 45.5251 19.2498 45.2264 18.8231C44.9351 18.4071 44.6111 18.1572 44.2542 18.0732C43.9001 17.9874 43.5763 18.0472 43.283 18.2526C42.9897 18.4579 42.8215 18.7426 42.7783 19.1067C42.7352 19.4707 42.8611 19.8633 43.1561 20.2847ZM49.551 18.9721L45.2327 15.6654L46.3247 14.9008L49.0699 17.1273L47.8526 13.831L48.9365 13.072L51.5937 15.3601L50.4564 12.0077L51.5644 11.2319L53.1748 16.4347L52.0948 17.1909L49.45 14.9716L50.6429 18.2075L49.551 18.9721Z" fill="#191919"/>
<defs>
<linearGradient id="paint0_linear" x1="164.949" y1="122.221" x2="164.438" y2="16" gradientUnits="userSpaceOnUse">
<stop stop-color="#554663"/>
<stop offset="1" stop-color="white"/>
</linearGradient>
<linearGradient id="paint1_linear" x1="3.01069" y1="97.0763" x2="39.4899" y2="97.0763" gradientUnits="userSpaceOnUse">
<stop stop-color="#A55EEA"/>
<stop offset="1" stop-color="#554663"/>
</linearGradient>
<linearGradient id="paint2_linear" x1="3.01069" y1="77.9805" x2="68.3607" y2="77.9805" gradientUnits="userSpaceOnUse">
<stop stop-color="#A55EEA"/>
<stop offset="0.5119" stop-color="#A55EEA"/>
<stop offset="0.994" stop-color="#A55EEA"/>
</linearGradient>
<linearGradient id="paint3_linear" x1="56.0798" y1="33.933" x2="50.0743" y2="25.3563" gradientUnits="userSpaceOnUse">
<stop stop-color="#A55EEA"/>
<stop offset="1" stop-color="#554663"/>
</linearGradient>
</defs>
</svg>
