<svg width="86" height="86" viewBox="0 0 86 86" fill="none" xmlns="http://www.w3.org/2000/svg">
<path d="M43 82.9141C65.0274 82.9141 82.8841 65.0509 82.8841 43.0156C82.8841 20.9802 65.0274 3.11707 43 3.11707C20.9727 3.11707 3.11597 20.9802 3.11597 43.0156C3.11597 65.0509 20.9727 82.9141 43 82.9141Z" fill="white"/>
<path d="M43 0C19.2877 0 0 19.2947 0 43.0156C0 66.7365 19.2877 86.0312 43 86.0312C66.7123 86.0312 86 66.7365 86 43.0156C86 19.2947 66.7123 0 43 0ZM43 79.797C22.7308 79.797 6.23188 63.2921 6.23188 43.0156C6.23188 22.739 22.7308 6.23414 43 6.23414C63.2692 6.23414 79.7681 22.739 79.7681 43.0156C79.7681 63.2921 63.2692 79.797 43 79.797Z" fill="white"/>
<path d="M43 3.11707C21.0015 3.11707 3.11597 21.0091 3.11597 43.0156C3.11597 65.0221 21.0015 82.9141 43 82.9141C64.9986 82.9141 82.8841 65.0221 82.8841 43.0156C82.8841 21.0091 64.9986 3.11707 43 3.11707ZM33.029 62.9648V23.0663L62.9421 43.0156L33.029 62.9648Z" fill="#A55EEA"/>
<path d="M33.0289 62.9648V23.0663L62.942 43.0156L33.0289 62.9648Z" fill="white"/>
</svg>
