<svg width="19" height="19" viewBox="0 0 19 19" fill="none" xmlns="http://www.w3.org/2000/svg">
<g clip-path="url(#clip0)">
<path d="M10.0962 19H8.90376C7.93933 19 7.15465 18.2154 7.15465 17.2509V16.8475C6.74463 16.7165 6.34626 16.5512 5.96355 16.3531L5.67766 16.639C4.98524 17.3323 3.87607 17.3119 3.20376 16.6387L2.36097 15.796C1.68747 15.1232 1.6681 14.0144 2.3612 13.3221L2.64686 13.0364C2.44881 12.6537 2.28349 12.2554 2.15246 11.8453H1.74908C0.784678 11.8453 0 11.0607 0 10.0962V8.90376C0 7.93933 0.784678 7.15469 1.74911 7.15469H2.15249C2.28353 6.74463 2.44885 6.3463 2.6469 5.96359L2.36101 5.67773C1.66833 4.98579 1.68744 3.87689 2.36123 3.20384L3.2041 2.36101C3.87797 1.68621 4.98687 1.66937 5.67796 2.36123L5.96359 2.64686C6.3463 2.44885 6.74467 2.28349 7.15469 2.15246V1.74908C7.15469 0.784641 7.93933 0 8.9038 0H10.0962C11.0607 0 11.8453 0.784641 11.8453 1.74908V2.15249C12.2553 2.28349 12.6537 2.44885 13.0364 2.6469L13.3223 2.36101C14.0147 1.66773 15.1239 1.68807 15.7962 2.36127L16.639 3.20402C17.3125 3.87678 17.3319 4.98557 16.6388 5.67792L16.3531 5.96359C16.5512 6.3463 16.7165 6.74459 16.8475 7.15469H17.2509C18.2153 7.15469 19 7.93933 19 8.90376V10.0962C19 11.0607 18.2153 11.8453 17.2509 11.8453H16.8475C16.7165 12.2554 16.5512 12.6537 16.3531 13.0364L16.639 13.3223C17.3317 14.0142 17.3126 15.1231 16.6388 15.7962L15.7959 16.639C15.122 17.3138 14.0131 17.3307 13.322 16.6388L13.0364 16.3532C12.6537 16.5512 12.2553 16.7165 11.8453 16.8476V17.251C11.8453 18.2154 11.0607 19 10.0962 19ZM6.14965 15.184C6.68132 15.4985 7.25355 15.736 7.85041 15.89C8.09623 15.9535 8.26797 16.1752 8.26797 16.429V17.2509C8.26797 17.6015 8.55323 17.8867 8.9038 17.8867H10.0962C10.4468 17.8867 10.7321 17.6015 10.7321 17.2509V16.429C10.7321 16.1752 10.9038 15.9535 11.1496 15.89C11.7465 15.736 12.3187 15.4985 12.8504 15.184C13.0691 15.0547 13.3476 15.0899 13.5274 15.2696L14.1095 15.8518C14.3605 16.1031 14.7636 16.0973 15.0085 15.852L15.8519 15.0087C16.0961 14.7647 16.1043 14.3616 15.8521 14.1097L15.2697 13.5273C15.09 13.3476 15.0548 13.0691 15.1841 12.8503C15.4985 12.3187 15.736 11.7465 15.8901 11.1496C15.9535 10.9038 16.1752 10.7321 16.4291 10.7321H17.2509C17.6015 10.7321 17.8868 10.4468 17.8868 10.0963V8.9038C17.8868 8.55323 17.6015 8.26801 17.2509 8.26801H16.4291C16.1752 8.26801 15.9535 8.09626 15.8901 7.85049C15.736 7.25358 15.4985 6.68136 15.1841 6.14973C15.0548 5.93101 15.09 5.65246 15.2697 5.47278L15.8519 4.89057C16.1035 4.63919 16.097 4.23618 15.8521 3.9916L15.0088 3.14829C14.7643 2.90351 14.3612 2.89635 14.1098 3.14806L13.5274 3.73049C13.3477 3.91021 13.0691 3.94539 12.8504 3.81603C12.3188 3.5016 11.7465 3.26407 11.1497 3.11003C10.9038 3.04661 10.7321 2.82491 10.7321 2.57105V1.74908C10.7321 1.3985 10.4468 1.11328 10.0963 1.11328H8.90384C8.55327 1.11328 8.26801 1.3985 8.26801 1.74908V2.57097C8.26801 2.82484 8.09626 3.04653 7.85045 3.10995C7.25358 3.26399 6.68136 3.50153 6.14969 3.81596C5.93089 3.94528 5.65239 3.9101 5.47271 3.73042L4.89053 3.14821C4.63953 2.89691 4.23641 2.90273 3.9916 3.14795L3.14821 3.9913C2.90396 4.23526 2.89579 4.63837 3.14799 4.89027L3.73042 5.47271C3.9101 5.65239 3.94528 5.93093 3.81596 6.14965C3.50153 6.68128 3.26403 7.25351 3.10999 7.85041C3.04653 8.09623 2.82484 8.26793 2.57101 8.26793H1.74911C1.39854 8.26797 1.11328 8.55319 1.11328 8.90376V10.0962C1.11328 10.4468 1.39854 10.732 1.74911 10.732H2.57097C2.82484 10.732 3.04649 10.9038 3.10995 11.1495C3.26399 11.7465 3.50153 12.3187 3.81592 12.8503C3.94525 13.069 3.91007 13.3476 3.73038 13.5273L3.14817 14.1095C2.8965 14.3608 2.90307 14.7639 3.14795 15.0084L3.99126 15.8518C4.2357 16.0965 4.63886 16.1037 4.89024 15.852L5.47263 15.2695C5.60504 15.1372 5.8805 15.0248 6.14965 15.184Z" fill="#A55EEA"/>
<path d="M9.49999 13.634C7.22048 13.634 5.36601 11.7795 5.36601 9.50001C5.36601 7.22053 7.22048 5.36603 9.49999 5.36603C11.7795 5.36603 13.634 7.22053 13.634 9.50001C13.634 11.7795 11.7795 13.634 9.49999 13.634ZM9.49999 6.47931C7.83434 6.47931 6.47929 7.83439 6.47929 9.50001C6.47929 11.1656 7.83438 12.5207 9.49999 12.5207C11.1656 12.5207 12.5207 11.1656 12.5207 9.50001C12.5207 7.83439 11.1656 6.47931 9.49999 6.47931Z" fill="#A55EEA"/>
</g>
<defs>
<clipPath id="clip0">
<rect width="19" height="19" fill="white"/>
</clipPath>
</defs>
</svg>
